<?xml version="1.0" standalone="no"?>
<!DOCTYPE svg PUBLIC "-//W3C//DTD SVG 20010904//EN"
 "http://www.w3.org/TR/2001/REC-SVG-20010904/DTD/svg10.dtd">
<svg version="1.0" xmlns="http://www.w3.org/2000/svg"
 width="293.000000pt" height="293.000000pt" viewBox="0 0 293.000000 293.000000"
 preserveAspectRatio="xMidYMid meet">
<metadata>
Created by potrace 1.11, written by Peter Selinger 2001-2013
</metadata>
<g transform="translate(0.000000,293.000000) scale(0.100000,-0.100000)"
fill="#000000" stroke="none">
<path d="M2544 2670 c-12 -5 -49 -44 -83 -88 -34 -44 -68 -82 -74 -84 -7 -3
-36 -6 -66 -7 -71 -3 -96 -14 -155 -64 l-49 -41 -128 0 c-121 1 -128 0 -133
-20 -11 -40 -6 -47 66 -93 65 -42 69 -47 49 -55 -32 -11 -169 -109 -175 -124
-2 -6 1 -20 8 -29 9 -13 30 -17 91 -18 79 -2 80 -2 83 -30 4 -33 -23 -130 -45
-164 -9 -14 -41 -39 -71 -55 -51 -30 -53 -32 -32 -43 29 -16 11 -30 -63 -49
-49 -13 -64 -13 -109 -1 -29 7 -105 14 -169 14 -102 1 -126 -2 -189 -25 -123
-44 -247 -128 -345 -234 -109 -117 -127 -133 -176 -151 -28 -11 -94 -24 -147
-29 -54 -5 -114 -14 -134 -20 -52 -15 -146 -87 -196 -151 -23 -30 -71 -91
-107 -136 l-65 -82 46 -7 c42 -6 109 6 166 30 14 7 15 3 7 -35 -5 -23 -8 -43
-6 -45 2 -2 41 16 88 40 46 24 95 47 108 51 23 7 24 6 18 -29 -3 -21 -2 -36 4
-36 16 0 111 50 169 90 67 46 94 74 113 120 l15 35 1 -76 c1 -68 -2 -80 -27
-115 -16 -21 -54 -59 -85 -83 -31 -24 -57 -49 -58 -55 0 -6 -2 -69 -4 -141 -3
-71 -7 -158 -10 -192 l-5 -62 68 -33 c66 -32 120 -39 182 -25 14 3 31 6 38 6
13 1 12 26 -4 82 -4 15 -83 52 -111 52 -7 0 -11 3 -8 5 3 3 -2 10 -10 16 -13
10 -13 18 3 71 35 115 56 139 177 212 127 77 166 115 215 207 19 36 39 66 43
66 5 0 6 -3 3 -8 -2 -4 -7 -26 -10 -48 -10 -63 -23 -102 -51 -149 -14 -24 -25
-50 -25 -57 0 -13 98 -261 130 -329 17 -38 51 -50 154 -56 83 -4 88 -4 82 14
-4 10 -10 30 -13 45 -7 33 -14 39 -75 64 -43 17 -51 26 -78 82 -53 111 -54
104 47 236 70 90 121 197 124 259 2 26 4 47 5 47 1 0 27 -15 57 -34 31 -18 83
-39 116 -46 51 -11 61 -16 62 -34 1 -32 8 -75 21 -131 10 -47 118 -341 158
-430 9 -22 25 -61 35 -87 11 -30 24 -48 39 -52 28 -7 121 -7 167 0 l36 6 -11
51 c-10 45 -15 51 -48 63 -63 22 -87 54 -123 168 -31 99 -49 207 -41 250 7 34
23 51 23 23 0 -7 18 -40 40 -73 62 -91 188 -345 216 -435 l12 -39 55 4 c30 3
76 5 102 5 l47 1 -4 41 c-3 23 -7 44 -10 47 -3 3 -33 17 -67 31 -60 25 -62 28
-103 108 -41 79 -74 200 -77 273 -3 103 28 260 68 345 l27 57 16 -26 c9 -14
19 -26 23 -26 13 0 36 94 32 134 l-4 39 27 -24 26 -24 -7 95 c-4 62 -3 90 3
80 6 -8 13 -11 17 -7 10 10 7 67 -12 187 -18 116 -14 216 11 291 9 25 72 127
140 225 68 98 125 186 125 196 0 27 -42 128 -54 128 -6 -1 -44 -32 -85 -70
-41 -38 -77 -68 -79 -66 -2 2 22 54 54 115 l58 111 -25 26 c-33 35 -50 43 -75
34z"/>
<path d="M2478 238 c-8 -5 1 -8 24 -8 20 0 39 4 42 8 6 11 -50 11 -66 0z"/>
<path d="M2438 233 c7 -3 16 -2 19 1 4 3 -2 6 -13 5 -11 0 -14 -3 -6 -6z"/>
</g>
</svg>
